<svg width="24" height="24" viewBox="0 0 24 24" fill="none" xmlns="http://www.w3.org/2000/svg">
<g opacity="0.8">
<path d="M18.125 7.625C18.65 7.625 19 7.975 19 8.5C19 9.025 18.65 9.375 18.125 9.375H14.625C14.1 9.375 13.75 9.025 13.75 8.5C13.75 7.975 14.1 7.625 14.625 7.625H18.125ZM9.375 5.875C10.8625 5.875 12 7.0125 12 8.5C12 9.9875 10.8625 11.125 9.375 11.125C8.2375 11.125 7.275 10.3375 6.925 9.375C6.8375 9.375 6.8375 9.375 6.75 9.375H5.875C5.35 9.375 5 9.025 5 8.5C5 7.975 5.35 7.625 5.875 7.625H6.75C6.8375 7.625 6.8375 7.625 6.925 7.625C7.275 6.6625 8.2375 5.875 9.375 5.875ZM5.875 16.375C5.35 16.375 5 16.025 5 15.5C5 14.975 5.35 14.625 5.875 14.625H9.375C9.9 14.625 10.25 14.975 10.25 15.5C10.25 16.025 9.9 16.375 9.375 16.375H5.875ZM18.125 14.625C18.65 14.625 19 14.975 19 15.5C19 16.025 18.65 16.375 18.125 16.375H17.25C17.1625 16.375 17.1625 16.375 17.075 16.375C16.725 17.3375 15.7625 18.125 14.625 18.125C13.1375 18.125 12 16.9875 12 15.5C12 14.0125 13.1375 12.875 14.625 12.875C15.7625 12.875 16.725 13.575 17.075 14.625C17.1625 14.625 17.1625 14.625 17.25 14.625H18.125Z" fill="white"/>
</g>
</svg>
